#!OML:ASF F:\VICON\USERDATA\INSTALL\rory3\rory3.ASF
:FULLY-SPECIFIED
:DEGREES
209
root 1.23028 16.4963 1.30881 -147.102 -31.2321 172.335
lowerback 6.71543 1.87689 -0.865871
upperback -4.49031 2.37804 0.106027
thorax -8.5496 1.18835 0.267932
lowerneck -13.2466 -1.14414 -4.73381
upperneck 43.875 -8.38159 5.2659
head 19.7117 -4.7484 1.32205
rclavicle -2.54444e-014 7.95139e-015
rhumerus -87.2925 -55.2406 52.9778
rradius 17.2671
rwrist 16.3123
rhand -25.362 16.3562
rfingers 7.12502
rthumb 1.16192 -13.6204
lclavicle -2.54444e-014 7.95139e-015
lhumerus -48.8593 22.7948 -10.6061
lradius 18.7959
lwrist -40.7427
lhand 7.05485 31.0083
lfingers 7.12502
lthumb 32.3279 58.1479
rfemur -40.5394 6.4822 25.3272
rtibia 38.0744
rfoot -44.7255 -29.8954
rtoes 33.2333
lfemur -61.7115 -6.9136 -16.5003
ltibia 38.9087
lfoot -31.8055 19.5978
ltoes 11.5349
210
root 1.19308 16.4833 1.24352 -148.125 -30.3382 173.484
lowerback 6.4824 2.03103 -0.399867
upperback -4.27205 2.65564 0.352559
thorax -8.17077 1.30716 0.241422
lowerneck -13.2619 -1.10418 -4.84787
upperneck 43.6448 -8.0903 5.08375
head 19.5213 -4.66947 1.31322
rclavicle 2.34566e-014 -4.92986e-014
rhumerus -87.2106 -55.3042 53.4913
rradius 17.4733
rwrist 14.8122
rhand -25.9033 16.4058
rfingers 7.12502
rthumb 0.639187 -13.573
lclavicle 2.34566e-014 -4.92986e-014
lhumerus -49.775 22.5262 -11.2043
lradius 18.873
lwrist -38.0938
lhand 6.51626 31.4084
lfingers 7.12502
lthumb 31.8151 58.6513
rfemur -39.3452 6.60667 26.3481
rtibia 37.4151
rfoot -43.7774 -29.6088
rtoes 32.1224
lfemur -63.0165 -7.14087 -15.7845
ltibia 38.7544
lfoot -31.474 20.4751
ltoes 11.9001
211
root 1.16279 16.4651 1.17653 -149.002 -29.3269 174.544
lowerback 6.32279 2.18575 -0.0914128
upperback -4.22615 2.90258 0.512171
thorax -8.02359 1.4152 0.211213
lowerneck -13.1307 -0.927304 -4.70268
upperneck 43.6308 -7.75634 4.81949
head 19.4112 -4.5661 1.22388
rclavicle 6.16232e-014 -1.43125e-014
rhumerus -87.6101 -55.2976 54.5957
rradius 17.4257
rwrist 14.0882
rhand -26.1562 16.968
rfingers 7.12502
rthumb 0.394892 -13.0114
lclavicle 6.16232e-014 -1.43125e-014
lhumerus -50.7973 22.7122 -12.699
lradius 18.8407
lwrist -37.2751
lhand 6.68072 31.3387
lfingers 7.12502
lthumb 31.9717 58.5503
rfemur -38.3416 6.95854 27.1826
rtibia 36.8246
rfoot -42.8878 -29.4889
rtoes 31.1472
lfemur -64.3594 -6.96068 -15.4035
ltibia 38.6069
lfoot -30.8302 21.1491
ltoes 15.0415
212
root 1.12573 16.4561 1.11588 -149.948 -28.4767 175.689
lowerback 6.27613 2.36424 0.640383
upperback -4.16999 3.21799 0.628127
thorax -7.90419 1.53227 -0.113132
lowerneck -13.1037 -0.785576 -4.54798
upperneck 43.6379 -7.50124 4.62047
head 19.3604 -4.47705 1.14712
rclavicle 3.53837e-014 -7.79236e-014
rhumerus -91.4647 -55.2711 59.8618
rradius 17.1345
rwrist 15.7704
rhand -25.8141 18.3679
rfingers 7.12502
rthumb 0.72526 -11.6106
lclavicle 3.53837e-014 -7.79236e-014
lhumerus -51.7081 23.3255 -14.2887
lradius 18.9623
lwrist -37.3959
lhand 6.82904 31.2467
lfingers 7.12502
lthumb 32.1129 58.4299
rfemur -37.324 6.94527 28.2179
rtibia 36.3261
rfoot -41.8128 -29.218
rtoes 30.4908
lfemur -65.5507 -6.70456 -15.0303
ltibia 38.4442
lfoot -30.3259 21.4773
ltoes 19.0181
213
root 1.08741 16.4555 1.05424 -150.834 -27.5808 176.53
lowerback 6.4373 2.55697 1.29795
upperback -4.15268 3.54126 0.615654
thorax -7.938 1.65283 -0.541494
lowerneck -12.9033 -0.687718 -4.53684
upperneck 43.5777 -7.41361 4.70034
head 19.2605 -4.44955 1.20231
rclavicle 1.19271e-015 -2.06736e-014
rhumerus -91.7317 -54.7451 60.5544
rradius 17.2365
rwrist 15.0714
rhand -25.4665 18.8087
rfingers 7.12502
rthumb 1.06104 -11.1684
lclavicle 1.19271e-015 -2.06736e-014
lhumerus -51.7559 21.9851 -13.6785
lradius 19.3181
lwrist -34.8274
lhand 5.90494 31.9306
lfingers 7.12502
lthumb 31.2327 59.2874
rfemur -36.2077 6.84237 28.954
rtibia 35.9109
rfoot -41.0769 -28.6288
rtoes 30.2882
lfemur -66.4333 -6.7002 -14.6811
ltibia 38.2738
lfoot -30.5082 21.3404
ltoes 23.1235
214
root 1.05208 16.4409 0.979712 -151.626 -26.5482 177.189
lowerback 6.53751 2.78507 1.63835
upperback -4.09701 3.88109 0.589759
thorax -7.90749 1.80042 -0.805618
lowerneck -12.8227 -0.595555 -4.55601
upperneck 43.6393 -7.3306 4.72354
head 19.2727 -4.43634 1.23034
rclavicle -1.98785e-015 -2.54444e-014
rhumerus -91.1288 -54.1974 60.0952
rradius 17.2819
rwrist 14.2908
rhand -25.2157 18.7185
rfingers 7.12502
rthumb 1.30329 -11.2573
lclavicle -1.98785e-015 -2.54444e-014
lhumerus -51.6409 20.107 -12.526
lradius 19.6861
lwrist -32.2952
lhand 5.57145 32.3746
lfingers 7.12502
lthumb 30.9149 59.7923
rfemur -35.0149 6.96585 29.4983
rtibia 35.4805
rfoot -40.3816 -28.2575
rtoes 29.2804
lfemur -67.2674 -6.69016 -14.4212
ltibia 38.2026
lfoot -30.9667 21.0519
ltoes 27.4024
215
root 1.012 16.4157 0.907986 -152.405 -25.3657 178.075
lowerback 6.38558 3.10905 2.1277
upperback -3.86873 4.35864 0.626046
thorax -7.5311 2.01798 -1.08292
lowerneck -12.9695 -0.603995 -4.48368
upperneck 43.5296 -7.18719 4.49567
head 19.2093 -4.38452 1.13338
rclavicle -1.82882e-014 -3.18055e-014
rhumerus -93.5077 -53.9635 63.2138
rradius 17.1505
rwrist 15.4389
rhand -24.7988 18.6038
rfingers 7.12502
rthumb 1.70593 -11.3691
lclavicle -1.82882e-014 -3.18055e-014
lhumerus -51.9031 19.9559 -12.606
lradius 19.8123
lwrist -32.4633
lhand 6.25829 32.4612
lfingers 7.12502
lthumb 31.5694 59.7526
rfemur -33.8769 7.12965 30.2016
rtibia 34.9495
rfoot -39.4606 -27.8543
rtoes 28.0015
lfemur -68.2567 -6.26629 -14.2467
ltibia 38.2534
lfoot -30.4692 21.6813
ltoes 27.8139
